<svg width="167" height="34" viewBox="0 0 167 34" fill="none" xmlns="http://www.w3.org/2000/svg">
<path d="M5.64062 0.483398V26H0.859375V0.483398H5.64062ZM16.9629 8.03711L9.16016 16.9355L4.97656 21.1689L3.2334 17.7158L6.55371 13.499L11.2188 8.03711H16.9629ZM11.999 26L6.68652 17.6992L9.99023 14.8105L17.5107 26H11.999ZM28.7168 21.9492V13.9473C28.7168 13.3717 28.6227 12.8792 28.4346 12.4697C28.2464 12.0492 27.9531 11.7227 27.5547 11.4902C27.1673 11.2578 26.6637 11.1416 26.0439 11.1416C25.5127 11.1416 25.0534 11.2357 24.666 11.4238C24.2786 11.6009 23.9798 11.861 23.7695 12.2041C23.5592 12.5361 23.4541 12.929 23.4541 13.3828H18.6729C18.6729 12.6191 18.8499 11.8942 19.2041 11.208C19.5583 10.5218 20.0729 9.91862 20.748 9.39844C21.4232 8.86719 22.2256 8.45215 23.1553 8.15332C24.096 7.85449 25.1475 7.70508 26.3096 7.70508C27.7041 7.70508 28.9437 7.9375 30.0283 8.40234C31.113 8.86719 31.9652 9.56445 32.585 10.4941C33.2158 11.4238 33.5312 12.5859 33.5312 13.9805V21.667C33.5312 22.652 33.5921 23.46 33.7139 24.0908C33.8356 24.7106 34.0127 25.2529 34.2451 25.7178V26H29.4141C29.1816 25.513 29.0046 24.9043 28.8828 24.1738C28.7721 23.4323 28.7168 22.6908 28.7168 21.9492ZM29.3477 15.0596L29.3809 17.7656H26.708C26.0771 17.7656 25.5293 17.8376 25.0645 17.9814C24.5996 18.1253 24.2178 18.3301 23.9189 18.5957C23.6201 18.8503 23.3988 19.1491 23.2549 19.4922C23.1221 19.8353 23.0557 20.2116 23.0557 20.6211C23.0557 21.0306 23.1497 21.4014 23.3379 21.7334C23.526 22.0544 23.7972 22.3089 24.1514 22.4971C24.5055 22.6742 24.9206 22.7627 25.3965 22.7627C26.1159 22.7627 26.7412 22.6188 27.2725 22.3311C27.8037 22.0433 28.2132 21.6891 28.501 21.2686C28.7998 20.848 28.9548 20.4495 28.9658 20.0732L30.2275 22.0986C30.0505 22.5524 29.807 23.0228 29.4971 23.5098C29.1982 23.9967 28.8164 24.4561 28.3516 24.8877C27.8867 25.3083 27.3278 25.6569 26.6748 25.9336C26.0218 26.1992 25.2471 26.332 24.3506 26.332C23.2106 26.332 22.1758 26.1051 21.2461 25.6514C20.3275 25.1865 19.597 24.5501 19.0547 23.7422C18.5234 22.9232 18.2578 21.9935 18.2578 20.9531C18.2578 20.0124 18.4349 19.1768 18.7891 18.4463C19.1432 17.7158 19.6634 17.1016 20.3496 16.6035C21.0469 16.0944 21.9157 15.7126 22.9561 15.458C23.9964 15.1924 25.2028 15.0596 26.5752 15.0596H29.3477ZM41.998 11.9551V26H37.2168V8.03711H41.7158L41.998 11.9551ZM47.4102 7.9209L47.3271 12.3535C47.0947 12.3203 46.8125 12.2926 46.4805 12.2705C46.1595 12.2373 45.8662 12.2207 45.6006 12.2207C44.9255 12.2207 44.3389 12.3092 43.8408 12.4863C43.3538 12.6523 42.9443 12.9014 42.6123 13.2334C42.2913 13.5654 42.0479 13.9694 41.8818 14.4453C41.7269 14.9212 41.6383 15.4635 41.6162 16.0723L40.6533 15.7734C40.6533 14.6113 40.7695 13.5433 41.002 12.5693C41.2344 11.5843 41.5719 10.7266 42.0146 9.99609C42.4684 9.26562 43.0218 8.70117 43.6748 8.30273C44.3278 7.9043 45.0749 7.70508 45.916 7.70508C46.1816 7.70508 46.4528 7.72721 46.7295 7.77148C47.0062 7.80469 47.2331 7.85449 47.4102 7.9209ZM55.2959 23.9746L60.0605 8.03711H65.1904L57.9688 28.7061C57.8138 29.1598 57.6035 29.6468 57.3379 30.167C57.0833 30.6872 56.7347 31.1797 56.292 31.6445C55.8604 32.1204 55.3125 32.5078 54.6484 32.8066C53.9954 33.1055 53.193 33.2549 52.2412 33.2549C51.7874 33.2549 51.4167 33.2272 51.1289 33.1719C50.8411 33.1165 50.498 33.0391 50.0996 32.9395V29.4365C50.2214 29.4365 50.3486 29.4365 50.4814 29.4365C50.6143 29.4476 50.7415 29.4531 50.8633 29.4531C51.4941 29.4531 52.0088 29.3812 52.4072 29.2373C52.8057 29.0934 53.1266 28.8721 53.3701 28.5732C53.6136 28.2855 53.8073 27.9092 53.9512 27.4443L55.2959 23.9746ZM53.3037 8.03711L57.2051 21.0527L57.8857 26.1162L54.6318 26.4648L48.1738 8.03711H53.3037ZM76.5293 21.9492V13.9473C76.5293 13.3717 76.4352 12.8792 76.2471 12.4697C76.0589 12.0492 75.7656 11.7227 75.3672 11.4902C74.9798 11.2578 74.4762 11.1416 73.8564 11.1416C73.3252 11.1416 72.8659 11.2357 72.4785 11.4238C72.0911 11.6009 71.7923 11.861 71.582 12.2041C71.3717 12.5361 71.2666 12.929 71.2666 13.3828H66.4854C66.4854 12.6191 66.6624 11.8942 67.0166 11.208C67.3708 10.5218 67.8854 9.91862 68.5605 9.39844C69.2357 8.86719 70.0381 8.45215 70.9678 8.15332C71.9085 7.85449 72.96 7.70508 74.1221 7.70508C75.5166 7.70508 76.7562 7.9375 77.8408 8.40234C78.9255 8.86719 79.7777 9.56445 80.3975 10.4941C81.0283 11.4238 81.3438 12.5859 81.3438 13.9805V21.667C81.3438 22.652 81.4046 23.46 81.5264 24.0908C81.6481 24.7106 81.8252 25.2529 82.0576 25.7178V26H77.2266C76.9941 25.513 76.8171 24.9043 76.6953 24.1738C76.5846 23.4323 76.5293 22.6908 76.5293 21.9492ZM77.1602 15.0596L77.1934 17.7656H74.5205C73.8896 17.7656 73.3418 17.8376 72.877 17.9814C72.4121 18.1253 72.0303 18.3301 71.7314 18.5957C71.4326 18.8503 71.2113 19.1491 71.0674 19.4922C70.9346 19.8353 70.8682 20.2116 70.8682 20.6211C70.8682 21.0306 70.9622 21.4014 71.1504 21.7334C71.3385 22.0544 71.6097 22.3089 71.9639 22.4971C72.318 22.6742 72.7331 22.7627 73.209 22.7627C73.9284 22.7627 74.5537 22.6188 75.085 22.3311C75.6162 22.0433 76.0257 21.6891 76.3135 21.2686C76.6123 20.848 76.7673 20.4495 76.7783 20.0732L78.04 22.0986C77.863 22.5524 77.6195 23.0228 77.3096 23.5098C77.0107 23.9967 76.6289 24.4561 76.1641 24.8877C75.6992 25.3083 75.1403 25.6569 74.4873 25.9336C73.8343 26.1992 73.0596 26.332 72.1631 26.332C71.0231 26.332 69.9883 26.1051 69.0586 25.6514C68.14 25.1865 67.4095 24.5501 66.8672 23.7422C66.3359 22.9232 66.0703 21.9935 66.0703 20.9531C66.0703 20.0124 66.2474 19.1768 66.6016 18.4463C66.9557 17.7158 67.4759 17.1016 68.1621 16.6035C68.8594 16.0944 69.7282 15.7126 70.7686 15.458C71.8089 15.1924 73.0153 15.0596 74.3877 15.0596H77.1602Z" fill="#525452"/>
<path d="M93.4961 0.5H98.2773V21.8828L97.7959 26H93.4961V0.5ZM109.649 16.8359V17.1846C109.649 18.5238 109.506 19.7523 109.218 20.8701C108.941 21.988 108.509 22.9564 107.923 23.7754C107.336 24.5833 106.606 25.2142 105.731 25.668C104.868 26.1107 103.85 26.332 102.677 26.332C101.581 26.332 100.629 26.1107 99.8213 25.668C99.0244 25.2253 98.3548 24.5999 97.8125 23.792C97.2702 22.984 96.833 22.0378 96.501 20.9531C96.1689 19.8685 95.9199 18.6842 95.7539 17.4004V16.6367C95.9199 15.3529 96.1689 14.1686 96.501 13.084C96.833 11.9993 97.2702 11.0531 97.8125 10.2451C98.3548 9.43717 99.0244 8.81185 99.8213 8.36914C100.618 7.92643 101.559 7.70508 102.644 7.70508C103.828 7.70508 104.857 7.93197 105.731 8.38574C106.617 8.82845 107.347 9.45931 107.923 10.2783C108.509 11.0863 108.941 12.0492 109.218 13.167C109.506 14.2738 109.649 15.4967 109.649 16.8359ZM104.868 17.1846V16.8359C104.868 16.1055 104.813 15.4193 104.702 14.7773C104.603 14.1243 104.425 13.5544 104.171 13.0674C103.916 12.5693 103.568 12.1764 103.125 11.8887C102.693 11.6009 102.134 11.457 101.448 11.457C100.795 11.457 100.242 11.5677 99.7881 11.7891C99.3343 12.0104 98.958 12.3203 98.6592 12.7188C98.3714 13.1172 98.1556 13.5931 98.0117 14.1465C97.8678 14.6888 97.7793 15.2865 97.7461 15.9395V18.1143C97.7793 18.9886 97.9232 19.7633 98.1777 20.4385C98.4434 21.1025 98.8418 21.6283 99.373 22.0156C99.9154 22.3919 100.618 22.5801 101.481 22.5801C102.157 22.5801 102.715 22.4473 103.158 22.1816C103.601 21.916 103.944 21.5397 104.188 21.0527C104.442 20.5658 104.619 19.9958 104.719 19.3428C104.818 18.6787 104.868 17.9593 104.868 17.1846ZM123.246 21.7002V8.03711H128.027V26H123.528L123.246 21.7002ZM123.777 18.0146L125.188 17.9814C125.188 19.1768 125.05 20.2891 124.773 21.3184C124.497 22.3366 124.082 23.222 123.528 23.9746C122.975 24.7161 122.278 25.2972 121.437 25.7178C120.595 26.1273 119.605 26.332 118.465 26.332C117.59 26.332 116.783 26.2103 116.041 25.9668C115.311 25.7122 114.68 25.3193 114.148 24.7881C113.628 24.2458 113.219 23.554 112.92 22.7129C112.632 21.8607 112.488 20.8369 112.488 19.6416V8.03711H117.27V19.6748C117.27 20.2061 117.33 20.6543 117.452 21.0195C117.585 21.3848 117.768 21.6836 118 21.916C118.232 22.1484 118.504 22.3145 118.813 22.4141C119.134 22.5137 119.489 22.5635 119.876 22.5635C120.861 22.5635 121.636 22.3643 122.2 21.9658C122.776 21.5674 123.18 21.0251 123.412 20.3389C123.656 19.6416 123.777 18.8669 123.777 18.0146ZM136.461 11.7559V26H131.663V8.03711H136.162L136.461 11.7559ZM135.797 16.3877H134.469C134.469 15.137 134.618 13.986 134.917 12.9346C135.227 11.8721 135.675 10.9535 136.262 10.1787C136.859 9.3929 137.595 8.78418 138.47 8.35254C139.344 7.9209 140.357 7.70508 141.508 7.70508C142.305 7.70508 143.035 7.82682 143.699 8.07031C144.363 8.30273 144.933 8.6735 145.409 9.18262C145.896 9.68066 146.272 10.3337 146.538 11.1416C146.804 11.9385 146.937 12.8958 146.937 14.0137V26H142.155V14.5449C142.155 13.7259 142.045 13.0951 141.823 12.6523C141.602 12.2096 141.286 11.8997 140.877 11.7227C140.479 11.5456 139.997 11.457 139.433 11.457C138.813 11.457 138.271 11.5843 137.806 11.8389C137.352 12.0934 136.976 12.4476 136.677 12.9014C136.378 13.3441 136.157 13.8643 136.013 14.4619C135.869 15.0596 135.797 15.7015 135.797 16.3877ZM146.488 15.8398L144.778 16.0557C144.778 14.8825 144.922 13.7923 145.21 12.7852C145.509 11.778 145.946 10.8926 146.521 10.1289C147.108 9.36523 147.833 8.77311 148.696 8.35254C149.56 7.9209 150.556 7.70508 151.685 7.70508C152.548 7.70508 153.334 7.83236 154.042 8.08691C154.75 8.3304 155.354 8.72331 155.852 9.26562C156.361 9.79688 156.748 10.4941 157.014 11.3574C157.29 12.2207 157.429 13.2777 157.429 14.5283V26H152.631V14.5283C152.631 13.6982 152.52 13.0674 152.299 12.6357C152.089 12.193 151.779 11.8887 151.369 11.7227C150.971 11.5456 150.495 11.457 149.941 11.457C149.366 11.457 148.862 11.5732 148.431 11.8057C147.999 12.027 147.639 12.3369 147.352 12.7354C147.064 13.1338 146.848 13.5986 146.704 14.1299C146.56 14.6501 146.488 15.2201 146.488 15.8398ZM166.178 8.03711V26H161.38V8.03711H166.178ZM161.081 3.35547C161.081 2.6582 161.325 2.08268 161.812 1.62891C162.299 1.17513 162.951 0.948242 163.771 0.948242C164.578 0.948242 165.226 1.17513 165.713 1.62891C166.211 2.08268 166.46 2.6582 166.46 3.35547C166.46 4.05273 166.211 4.62826 165.713 5.08203C165.226 5.53581 164.578 5.7627 163.771 5.7627C162.951 5.7627 162.299 5.53581 161.812 5.08203C161.325 4.62826 161.081 4.05273 161.081 3.35547Z" fill="#3A5A4B"/>
</svg>
