<svg width="208" height="167" viewBox="0 0 208 167" fill="none" xmlns="http://www.w3.org/2000/svg">
<path d="M12.875 0.157811V65H0.725V0.157811H12.875ZM41.6469 19.3531L21.8188 41.9656L11.1875 52.7234L6.75781 43.9484L15.1953 33.2328L27.05 19.3531H41.6469ZM29.0328 65L15.5328 43.9062L23.9281 36.5656L43.0391 65H29.0328ZM71.5156 54.7062V34.3719C71.5156 32.9094 71.2766 31.6578 70.7984 30.6172C70.3203 29.5484 69.575 28.7187 68.5625 28.1281C67.5781 27.5375 66.2984 27.2422 64.7234 27.2422C63.3734 27.2422 62.2063 27.4812 61.2219 27.9594C60.2375 28.4094 59.4781 29.0703 58.9438 29.9422C58.4094 30.7859 58.1422 31.7844 58.1422 32.9375H45.9922C45.9922 30.9969 46.4422 29.1547 47.3422 27.4109C48.2422 25.6672 49.55 24.1344 51.2656 22.8125C52.9813 21.4625 55.0203 20.4078 57.3828 19.6484C59.7734 18.8891 62.4453 18.5094 65.3984 18.5094C68.9422 18.5094 72.0922 19.1 74.8484 20.2812C77.6047 21.4625 79.7703 23.2344 81.3453 25.5969C82.9484 27.9594 83.75 30.9125 83.75 34.4562V53.9891C83.75 56.4922 83.9047 58.5453 84.2141 60.1484C84.5234 61.7234 84.9734 63.1016 85.5641 64.2828V65H73.2875C72.6969 63.7625 72.2469 62.2156 71.9375 60.3594C71.6563 58.475 71.5156 56.5906 71.5156 54.7062ZM73.1188 37.1984L73.2031 44.075H66.4109C64.8078 44.075 63.4156 44.2578 62.2344 44.6234C61.0531 44.9891 60.0828 45.5094 59.3234 46.1844C58.5641 46.8312 58.0016 47.5906 57.6359 48.4625C57.2984 49.3344 57.1297 50.2906 57.1297 51.3312C57.1297 52.3719 57.3688 53.3141 57.8469 54.1578C58.325 54.9734 59.0141 55.6203 59.9141 56.0984C60.8141 56.5484 61.8688 56.7734 63.0781 56.7734C64.9063 56.7734 66.4953 56.4078 67.8453 55.6766C69.1953 54.9453 70.2359 54.0453 70.9672 52.9766C71.7266 51.9078 72.1203 50.8953 72.1484 49.9391L75.3547 55.0859C74.9047 56.2391 74.2859 57.4344 73.4984 58.6719C72.7391 59.9094 71.7688 61.0766 70.5875 62.1734C69.4063 63.2422 67.9859 64.1281 66.3266 64.8312C64.6672 65.5063 62.6984 65.8438 60.4203 65.8438C57.5234 65.8438 54.8938 65.2672 52.5313 64.1141C50.1969 62.9328 48.3406 61.3156 46.9625 59.2625C45.6125 57.1812 44.9375 54.8187 44.9375 52.175C44.9375 49.7844 45.3875 47.6609 46.2875 45.8047C47.1875 43.9484 48.5094 42.3875 50.2531 41.1219C52.025 39.8281 54.2328 38.8578 56.8766 38.2109C59.5203 37.5359 62.5859 37.1984 66.0734 37.1984H73.1188ZM105.266 29.3094V65H93.1156V19.3531H104.548L105.266 29.3094ZM119.019 19.0578L118.808 30.3219C118.217 30.2375 117.5 30.1672 116.656 30.1109C115.841 30.0266 115.095 29.9844 114.42 29.9844C112.705 29.9844 111.214 30.2094 109.948 30.6594C108.711 31.0812 107.67 31.7141 106.827 32.5578C106.011 33.4016 105.392 34.4281 104.97 35.6375C104.577 36.8469 104.352 38.225 104.295 39.7719L101.848 39.0125C101.848 36.0594 102.144 33.3453 102.734 30.8703C103.325 28.3672 104.183 26.1875 105.308 24.3312C106.461 22.475 107.867 21.0406 109.527 20.0281C111.186 19.0156 113.084 18.5094 115.222 18.5094C115.897 18.5094 116.586 18.5656 117.289 18.6781C117.992 18.7625 118.569 18.8891 119.019 19.0578ZM139.058 59.8531L151.166 19.3531H164.202L145.85 71.8766C145.456 73.0297 144.922 74.2672 144.247 75.5891C143.6 76.9109 142.714 78.1625 141.589 79.3438C140.492 80.5531 139.1 81.5375 137.413 82.2969C135.753 83.0563 133.714 83.4359 131.295 83.4359C130.142 83.4359 129.2 83.3656 128.469 83.225C127.738 83.0844 126.866 82.8875 125.853 82.6344V73.7328C126.163 73.7328 126.486 73.7328 126.823 73.7328C127.161 73.7609 127.484 73.775 127.794 73.775C129.397 73.775 130.705 73.5922 131.717 73.2266C132.73 72.8609 133.545 72.2984 134.164 71.5391C134.783 70.8078 135.275 69.8516 135.641 68.6703L139.058 59.8531ZM133.995 19.3531L143.909 52.4281L145.639 65.2953L137.37 66.1813L120.959 19.3531H133.995ZM193.016 54.7062V34.3719C193.016 32.9094 192.777 31.6578 192.298 30.6172C191.82 29.5484 191.075 28.7187 190.062 28.1281C189.078 27.5375 187.798 27.2422 186.223 27.2422C184.873 27.2422 183.706 27.4812 182.722 27.9594C181.737 28.4094 180.978 29.0703 180.444 29.9422C179.909 30.7859 179.642 31.7844 179.642 32.9375H167.492C167.492 30.9969 167.942 29.1547 168.842 27.4109C169.742 25.6672 171.05 24.1344 172.766 22.8125C174.481 21.4625 176.52 20.4078 178.883 19.6484C181.273 18.8891 183.945 18.5094 186.898 18.5094C190.442 18.5094 193.592 19.1 196.348 20.2812C199.105 21.4625 201.27 23.2344 202.845 25.5969C204.448 27.9594 205.25 30.9125 205.25 34.4562V53.9891C205.25 56.4922 205.405 58.5453 205.714 60.1484C206.023 61.7234 206.473 63.1016 207.064 64.2828V65H194.787C194.197 63.7625 193.747 62.2156 193.437 60.3594C193.156 58.475 193.016 56.5906 193.016 54.7062ZM194.619 37.1984L194.703 44.075H187.911C186.308 44.075 184.916 44.2578 183.734 44.6234C182.553 44.9891 181.583 45.5094 180.823 46.1844C180.064 46.8312 179.502 47.5906 179.136 48.4625C178.798 49.3344 178.63 50.2906 178.63 51.3312C178.63 52.3719 178.869 53.3141 179.347 54.1578C179.825 54.9734 180.514 55.6203 181.414 56.0984C182.314 56.5484 183.369 56.7734 184.578 56.7734C186.406 56.7734 187.995 56.4078 189.345 55.6766C190.695 54.9453 191.736 54.0453 192.467 52.9766C193.227 51.9078 193.62 50.8953 193.648 49.9391L196.855 55.0859C196.405 56.2391 195.786 57.4344 194.998 58.6719C194.239 59.9094 193.269 61.0766 192.087 62.1734C190.906 63.2422 189.486 64.1281 187.827 64.8312C186.167 65.5063 184.198 65.8438 181.92 65.8438C179.023 65.8438 176.394 65.2672 174.031 64.1141C171.697 62.9328 169.841 61.3156 168.462 59.2625C167.112 57.1812 166.437 54.8187 166.437 52.175C166.437 49.7844 166.887 47.6609 167.787 45.8047C168.687 43.9484 170.009 42.3875 171.753 41.1219C173.525 39.8281 175.733 38.8578 178.377 38.2109C181.02 37.5359 184.086 37.1984 187.573 37.1984H194.619Z" fill="#525452"/>
<path d="M0.725 101.2H12.875V155.537L11.6516 166H0.725V101.2ZM41.7734 142.712V143.598C41.7734 147.002 41.4078 150.123 40.6766 152.964C39.9734 155.805 38.8766 158.266 37.3859 160.347C35.8953 162.4 34.0391 164.003 31.8172 165.156C29.6234 166.281 27.0359 166.844 24.0547 166.844C21.2703 166.844 18.8516 166.281 16.7984 165.156C14.7734 164.031 13.0719 162.442 11.6938 160.389C10.3156 158.336 9.20469 155.931 8.36094 153.175C7.51719 150.419 6.88438 147.409 6.4625 144.147V142.206C6.88438 138.944 7.51719 135.934 8.36094 133.178C9.20469 130.422 10.3156 128.017 11.6938 125.964C13.0719 123.911 14.7734 122.322 16.7984 121.197C18.8234 120.072 21.2141 119.509 23.9703 119.509C26.9797 119.509 29.5953 120.086 31.8172 121.239C34.0672 122.364 35.9234 123.967 37.3859 126.048C38.8766 128.102 39.9734 130.548 40.6766 133.389C41.4078 136.202 41.7734 139.309 41.7734 142.712ZM29.6234 143.598V142.712C29.6234 140.856 29.4828 139.112 29.2016 137.481C28.9484 135.822 28.4984 134.373 27.8516 133.136C27.2047 131.87 26.3188 130.872 25.1938 130.141C24.0969 129.409 22.6766 129.044 20.9328 129.044C19.2734 129.044 17.8672 129.325 16.7141 129.887C15.5609 130.45 14.6047 131.237 13.8453 132.25C13.1141 133.262 12.5656 134.472 12.2 135.878C11.8344 137.256 11.6094 138.775 11.525 140.434V145.961C11.6094 148.183 11.975 150.152 12.6219 151.867C13.2969 153.555 14.3094 154.891 15.6594 155.875C17.0375 156.831 18.8234 157.309 21.0172 157.309C22.7328 157.309 24.1531 156.972 25.2781 156.297C26.4031 155.622 27.275 154.666 27.8938 153.428C28.5406 152.191 28.9906 150.742 29.2438 149.083C29.4969 147.395 29.6234 145.567 29.6234 143.598ZM76.325 155.073V120.353H88.475V166H77.0422L76.325 155.073ZM77.675 145.708L81.2609 145.623C81.2609 148.661 80.9094 151.487 80.2063 154.103C79.5031 156.691 78.4484 158.941 77.0422 160.853C75.6359 162.737 73.8641 164.214 71.7266 165.283C69.5891 166.323 67.0719 166.844 64.175 166.844C61.9531 166.844 59.9 166.534 58.0156 165.916C56.1594 165.269 54.5563 164.27 53.2063 162.92C51.8844 161.542 50.8438 159.784 50.0844 157.647C49.3531 155.481 48.9875 152.88 48.9875 149.842V120.353H61.1375V149.927C61.1375 151.277 61.2922 152.416 61.6016 153.344C61.9391 154.272 62.4031 155.031 62.9938 155.622C63.5844 156.212 64.2734 156.634 65.0609 156.887C65.8766 157.141 66.7766 157.267 67.7609 157.267C70.2641 157.267 72.2328 156.761 73.6672 155.748C75.1297 154.736 76.1563 153.358 76.7469 151.614C77.3656 149.842 77.675 147.873 77.675 145.708ZM109.906 129.803V166H97.7141V120.353H109.147L109.906 129.803ZM108.219 141.573H104.844C104.844 138.395 105.223 135.47 105.983 132.798C106.77 130.098 107.909 127.764 109.4 125.795C110.919 123.798 112.789 122.252 115.011 121.155C117.233 120.058 119.806 119.509 122.731 119.509C124.756 119.509 126.613 119.819 128.3 120.437C129.988 121.028 131.436 121.97 132.645 123.264C133.883 124.53 134.839 126.189 135.514 128.242C136.189 130.267 136.527 132.7 136.527 135.541V166H124.377V136.891C124.377 134.809 124.095 133.206 123.533 132.081C122.97 130.956 122.169 130.169 121.128 129.719C120.116 129.269 118.892 129.044 117.458 129.044C115.883 129.044 114.505 129.367 113.323 130.014C112.17 130.661 111.214 131.561 110.455 132.714C109.695 133.839 109.133 135.161 108.767 136.68C108.402 138.198 108.219 139.83 108.219 141.573ZM135.388 140.181L131.042 140.73C131.042 137.748 131.408 134.978 132.139 132.419C132.898 129.859 134.009 127.609 135.472 125.669C136.963 123.728 138.805 122.223 140.998 121.155C143.192 120.058 145.723 119.509 148.592 119.509C150.786 119.509 152.783 119.833 154.583 120.48C156.383 121.098 157.916 122.097 159.181 123.475C160.475 124.825 161.459 126.597 162.134 128.791C162.838 130.984 163.189 133.67 163.189 136.848V166H150.997V136.848C150.997 134.739 150.716 133.136 150.153 132.039C149.619 130.914 148.831 130.141 147.791 129.719C146.778 129.269 145.569 129.044 144.163 129.044C142.7 129.044 141.42 129.339 140.323 129.93C139.227 130.492 138.313 131.28 137.581 132.292C136.85 133.305 136.302 134.486 135.936 135.836C135.57 137.158 135.388 138.606 135.388 140.181ZM185.422 120.353V166H173.23V120.353H185.422ZM172.47 108.456C172.47 106.684 173.089 105.222 174.327 104.069C175.564 102.916 177.223 102.339 179.305 102.339C181.358 102.339 183.003 102.916 184.241 104.069C185.506 105.222 186.139 106.684 186.139 108.456C186.139 110.228 185.506 111.691 184.241 112.844C183.003 113.997 181.358 114.573 179.305 114.573C177.223 114.573 175.564 113.997 174.327 112.844C173.089 111.691 172.47 110.228 172.47 108.456Z" fill="#3A5A4B"/>
</svg>
